<svg width="167" height="51" viewBox="0 0 167 51" fill="none" xmlns="http://www.w3.org/2000/svg">
<path d="M31.92 14.16C31.92 16.4267 31.3333 18.5067 30.16 20.4C28.9867 22.2933 27.28 23.84 25.04 25.04C22.8 26.24 20.1333 26.9467 17.04 27.16L15.32 36.8C14.6533 40.5067 12.84 42.36 9.88 42.36C8.25333 42.36 6.74667 41.88 5.36 40.92C4 39.96 2.90667 38.4933 2.08 36.52C1.25333 34.5467 0.84 32.12 0.84 29.24C0.84 23.8267 1.70667 19.24 3.44 15.48C5.2 11.6933 7.54667 8.86667 10.48 7C13.44 5.10667 16.6933 4.16 20.24 4.16C22.7467 4.16 24.8667 4.6 26.6 5.48C28.36 6.36 29.68 7.56 30.56 9.08C31.4667 10.5733 31.92 12.2667 31.92 14.16ZM17.76 23.04C23.2267 22.3467 25.96 19.5067 25.96 14.52C25.96 12.76 25.3733 11.3333 24.2 10.24C23.0533 9.12 21.2667 8.56 18.84 8.56C16.0933 8.56 13.6933 9.42666 11.64 11.16C9.61333 12.8933 8.04 15.3067 6.92 18.4C5.82667 21.4667 5.28 24.9733 5.28 28.92C5.28 30.5733 5.44 32.04 5.76 33.32C6.10667 34.6 6.53333 35.6 7.04 36.32C7.57333 37.0133 8.08 37.36 8.56 37.36C9.22667 37.36 9.73333 36.44 10.08 34.6L11.4 27.04C10.36 26.88 9.90667 26.8133 10.04 26.84C9.24 26.7067 8.72 26.4667 8.48 26.12C8.24 25.7467 8.12 25.28 8.12 24.72C8.12 24.1333 8.28 23.6667 8.6 23.32C8.94667 22.9733 9.41333 22.8 10 22.8C10.2667 22.8 10.4667 22.8133 10.6 22.84C11.24 22.9467 11.7333 23.0133 12.08 23.04C12.4267 20.96 12.92 18.1733 13.56 14.68C13.72 13.7733 14.08 13.1333 14.64 12.76C15.2267 12.36 15.9067 12.16 16.68 12.16C17.56 12.16 18.1867 12.3333 18.56 12.68C18.96 13 19.16 13.52 19.16 14.24C19.16 14.6667 19.1333 15.0133 19.08 15.28L17.76 23.04ZM48.9553 29.08C49.302 29.08 49.5686 29.24 49.7553 29.56C49.9686 29.88 50.0753 30.32 50.0753 30.88C50.0753 31.9467 49.822 32.7733 49.3153 33.36C48.3286 34.56 46.9286 35.6667 45.1153 36.68C43.3286 37.6933 41.4086 38.2 39.3553 38.2C36.5553 38.2 34.382 37.44 32.8353 35.92C31.2886 34.4 30.5153 32.32 30.5153 29.68C30.5153 27.84 30.902 26.1333 31.6753 24.56C32.4486 22.96 33.5153 21.6933 34.8753 20.76C36.262 19.8267 37.822 19.36 39.5553 19.36C41.102 19.36 42.342 19.8267 43.2753 20.76C44.2086 21.6667 44.6753 22.9067 44.6753 24.48C44.6753 26.32 44.0086 27.9067 42.6753 29.24C41.3686 30.5467 39.142 31.5867 35.9953 32.36C36.662 33.5867 37.9286 34.2 39.7953 34.2C40.9953 34.2 42.3553 33.7867 43.8753 32.96C45.422 32.1067 46.7553 31 47.8753 29.64C48.1953 29.2667 48.5553 29.08 48.9553 29.08ZM38.8753 23.28C37.8886 23.28 37.0486 23.8533 36.3553 25C35.6886 26.1467 35.3553 27.5333 35.3553 29.16V29.24C36.9286 28.8667 38.1686 28.3067 39.0753 27.56C39.982 26.8133 40.4353 25.9467 40.4353 24.96C40.4353 24.4533 40.2886 24.0533 39.9953 23.76C39.7286 23.44 39.3553 23.28 38.8753 23.28ZM49.6584 38.2C48.6451 38.2 47.9251 37.6667 47.4984 36.6C47.0984 35.5333 46.8984 33.8267 46.8984 31.48C46.8984 28.0133 47.3918 24.72 48.3784 21.6C48.6184 20.8267 49.0051 20.2667 49.5384 19.92C50.0984 19.5467 50.8718 19.36 51.8584 19.36C52.3918 19.36 52.7651 19.4267 52.9784 19.56C53.1918 19.6933 53.2984 19.9467 53.2984 20.32C53.2984 20.7467 53.0984 21.7067 52.6984 23.2C52.4318 24.2667 52.2184 25.2 52.0584 26C51.8984 26.8 51.7651 27.7867 51.6584 28.96C52.5384 26.6667 53.5251 24.8 54.6184 23.36C55.7118 21.92 56.7784 20.8933 57.8184 20.28C58.8851 19.6667 59.8584 19.36 60.7384 19.36C62.4718 19.36 63.3384 20.2267 63.3384 21.96C63.3384 22.3067 63.2184 23.1467 62.9784 24.48C62.7651 25.5467 62.6584 26.2133 62.6584 26.48C62.6584 27.4133 62.9918 27.88 63.6584 27.88C64.4051 27.88 65.3651 27.2933 66.5384 26.12C66.8851 25.7733 67.2451 25.6 67.6184 25.6C67.9651 25.6 68.2318 25.76 68.4184 26.08C68.6318 26.3733 68.7384 26.7733 68.7384 27.28C68.7384 28.2667 68.4718 29.04 67.9384 29.6C67.1918 30.3733 66.3118 31.04 65.2984 31.6C64.3118 32.1333 63.2584 32.4 62.1384 32.4C60.7251 32.4 59.6451 32.04 58.8984 31.32C58.1784 30.6 57.8184 29.6267 57.8184 28.4C57.8184 28 57.8584 27.6 57.9384 27.2C57.9918 26.6667 58.0184 26.3067 58.0184 26.12C58.0184 25.6933 57.8718 25.48 57.5784 25.48C57.1784 25.48 56.6451 25.9333 55.9784 26.84C55.3384 27.72 54.6984 28.8933 54.0584 30.36C53.4184 31.8267 52.8984 33.3733 52.4984 35C52.2051 36.2533 51.8584 37.1067 51.4584 37.56C51.0851 37.9867 50.4851 38.2 49.6584 38.2ZM80.9816 26.8C81.7282 26.8 82.1016 27.36 82.1016 28.48C82.1016 30.5867 80.4482 31.64 77.1416 31.64C76.5016 31.64 75.5816 31.52 74.3816 31.28C74.7282 32.9333 75.0082 34.7733 75.2216 36.8C75.4616 38.8 75.5816 40.4533 75.5816 41.76C75.5816 44.64 75.1149 46.84 74.1816 48.36C73.2482 49.88 72.0216 50.64 70.5016 50.64C68.5816 50.64 67.2082 49.28 66.3816 46.56C65.5816 43.84 65.1816 39.7333 65.1816 34.24C65.1816 29.12 65.7282 23.9333 66.8216 18.68C67.9416 13.4 69.4616 9.04 71.3816 5.6C73.3282 2.13333 75.4616 0.399998 77.7816 0.399998C79.0349 0.399998 80.0082 0.959998 80.7016 2.08C81.4216 3.2 81.7816 4.70666 81.7816 6.6C81.7816 12.8667 78.0349 19.6933 70.5416 27.08C70.2749 29.6933 70.1416 31.9867 70.1416 33.96C70.1416 36.7067 70.2349 39.52 70.4216 42.4C70.6082 45.3067 70.9149 46.76 71.3416 46.76C72.1416 46.76 72.5416 45.3733 72.5416 42.6C72.5416 40.52 72.3949 38.5067 72.1016 36.56C71.8349 34.6133 71.4616 32.56 70.9816 30.4C70.9549 30.0533 71.0616 29.6133 71.3016 29.08C71.5682 28.5467 71.8882 28.08 72.2616 27.68C72.6349 27.28 72.9682 27.08 73.2616 27.08C73.7949 27.08 74.4349 27.1067 75.1816 27.16C75.4216 27.1867 75.7016 27.2 76.0216 27.2C77.0882 27.2 78.2749 27.1067 79.5816 26.92C79.7949 26.8933 80.0216 26.8667 80.2616 26.84C80.5016 26.8133 80.7416 26.8 80.9816 26.8ZM76.9416 4.36C76.4616 4.36 75.8616 5.17333 75.1416 6.8C74.4482 8.42667 73.7549 10.5867 73.0616 13.28C72.3682 15.9467 71.7682 18.7733 71.2616 21.76C73.3949 19.3333 75.0349 16.8133 76.1816 14.2C77.3282 11.56 77.9149 9.09333 77.9416 6.8C77.9416 5.17333 77.6082 4.36 76.9416 4.36ZM89.6881 39.08C88.3015 39.08 87.2348 38.76 86.4881 38.12C85.7681 37.48 85.4081 36.76 85.4081 35.96C85.4081 35.2667 85.6615 34.6667 86.1681 34.16C86.6748 33.6533 87.4215 33.4 88.4081 33.4C88.7548 33.4 89.1548 33.44 89.6081 33.52C90.0881 33.5733 90.4481 33.6133 90.6881 33.64C90.6615 32.9467 90.5015 32.2933 90.2081 31.68C89.9415 31.0667 89.5948 30.48 89.1681 29.92C88.7415 29.3333 88.3415 28.8267 87.9681 28.4C87.1415 29.9733 86.3148 31.28 85.4881 32.32C84.6881 33.36 83.8081 34.3467 82.8481 35.28C82.3681 35.76 81.8615 36 81.3281 36C80.9015 36 80.5548 35.8533 80.2881 35.56C80.0215 35.24 79.8881 34.8533 79.8881 34.4C79.8881 33.8667 80.0748 33.3733 80.4481 32.92L80.9681 32.28C82.4348 30.4667 83.5415 28.9733 84.2881 27.8C84.7415 27.0267 85.2748 26 85.8881 24.72C86.5015 23.4133 87.1015 22.0667 87.6881 20.68C88.1948 19.5067 89.2481 18.92 90.8481 18.92C91.5948 18.92 92.1148 18.9867 92.4081 19.12C92.7015 19.2533 92.8481 19.4667 92.8481 19.76C92.8481 19.92 92.7948 20.1733 92.6881 20.52C92.5815 20.8667 92.4348 21.2133 92.2481 21.56C91.7681 22.52 91.5281 23.3333 91.5281 24C91.5281 24.4 91.6615 24.84 91.9281 25.32C92.2215 25.8 92.6615 26.4 93.2481 27.12C94.1015 28.24 94.7415 29.2 95.1681 30C95.6215 30.7733 95.8481 31.6267 95.8481 32.56C95.8481 32.8267 95.8215 33.2 95.7681 33.68C97.0748 33.1733 98.6081 31.8267 100.368 29.64C100.688 29.2667 101.048 29.08 101.448 29.08C101.795 29.08 102.061 29.24 102.248 29.56C102.461 29.88 102.568 30.32 102.568 30.88C102.568 31.8933 102.315 32.72 101.808 33.36C100.475 35.0133 99.1948 36.1467 97.9681 36.76C96.7681 37.3467 95.2748 37.6667 93.4881 37.72C92.4215 38.6267 91.1548 39.08 89.6881 39.08ZM117.158 29.08C117.505 29.08 117.772 29.24 117.958 29.56C118.172 29.88 118.278 30.32 118.278 30.88C118.278 31.9467 118.025 32.7733 117.518 33.36C116.372 34.7733 115.118 35.9333 113.758 36.84C112.398 37.7467 110.838 38.2 109.078 38.2C103.638 38.2 100.918 34.3733 100.918 26.72C100.918 25.5467 100.958 24.36 101.038 23.16H99.4784C98.6784 23.16 98.1318 23.0133 97.8384 22.72C97.5718 22.4267 97.4384 21.96 97.4384 21.32C97.4384 19.8267 98.0384 19.08 99.2384 19.08H101.518C101.972 16.1467 102.665 13.4667 103.598 11.04C104.532 8.61333 105.652 6.68 106.958 5.24C108.292 3.8 109.718 3.08 111.238 3.08C112.358 3.08 113.238 3.57333 113.878 4.56C114.518 5.54667 114.838 6.78667 114.838 8.28C114.838 12.4133 113.105 16.0133 109.638 19.08H114.118C114.545 19.08 114.852 19.1733 115.038 19.36C115.225 19.5467 115.318 19.8933 115.318 20.4C115.318 22.24 113.812 23.16 110.798 23.16H105.918C105.865 24.4933 105.838 25.5333 105.838 26.28C105.838 29.0533 106.158 31 106.798 32.12C107.465 33.24 108.505 33.8 109.918 33.8C111.065 33.8 112.078 33.4533 112.958 32.76C113.838 32.0667 114.878 31.0267 116.078 29.64C116.398 29.2667 116.758 29.08 117.158 29.08ZM110.158 6.92C109.758 6.92 109.305 7.42667 108.798 8.44C108.318 9.42667 107.852 10.8133 107.398 12.6C106.972 14.36 106.612 16.32 106.318 18.48C107.892 17.12 109.065 15.6 109.838 13.92C110.638 12.2133 111.038 10.6667 111.038 9.28C111.038 7.70667 110.745 6.92 110.158 6.92ZM135.422 25.72C135.768 25.72 136.035 25.8933 136.222 26.24C136.408 26.5867 136.502 27.0267 136.502 27.56C136.502 28.84 136.115 29.6 135.342 29.84C133.742 30.4 131.982 30.72 130.062 30.8C129.555 33.04 128.555 34.84 127.062 36.2C125.568 37.5333 123.875 38.2 121.982 38.2C120.382 38.2 119.008 37.8133 117.862 37.04C116.742 36.2667 115.888 35.24 115.302 33.96C114.715 32.68 114.422 31.2933 114.422 29.8C114.422 27.7733 114.808 25.9733 115.582 24.4C116.355 22.8 117.422 21.56 118.782 20.68C120.142 19.7733 121.648 19.32 123.302 19.32C125.328 19.32 126.955 20.0267 128.182 21.44C129.435 22.8267 130.168 24.5467 130.382 26.6C131.635 26.52 133.128 26.2533 134.862 25.8C135.075 25.7467 135.262 25.72 135.422 25.72ZM122.302 33.96C123.155 33.96 123.888 33.6133 124.502 32.92C125.142 32.2267 125.568 31.2267 125.782 29.92C124.955 29.36 124.315 28.6267 123.862 27.72C123.435 26.8133 123.222 25.8533 123.222 24.84C123.222 24.4133 123.262 23.9867 123.342 23.56H123.142C122.075 23.56 121.182 24.08 120.462 25.12C119.768 26.1333 119.422 27.5733 119.422 29.44C119.422 30.9067 119.702 32.0267 120.262 32.8C120.848 33.5733 121.528 33.96 122.302 33.96ZM135.908 38.2C134.895 38.2 134.175 37.6667 133.748 36.6C133.348 35.5333 133.148 33.8267 133.148 31.48C133.148 28.0133 133.642 24.72 134.628 21.6C134.868 20.8267 135.255 20.2667 135.788 19.92C136.348 19.5467 137.122 19.36 138.108 19.36C138.642 19.36 139.015 19.4267 139.228 19.56C139.442 19.6933 139.548 19.9467 139.548 20.32C139.548 20.7467 139.348 21.7067 138.948 23.2C138.682 24.2667 138.468 25.2 138.308 26C138.148 26.8 138.015 27.7867 137.908 28.96C138.788 26.6667 139.775 24.8 140.868 23.36C141.962 21.92 143.028 20.8933 144.068 20.28C145.135 19.6667 146.108 19.36 146.988 19.36C148.722 19.36 149.588 20.2267 149.588 21.96C149.588 22.3067 149.468 23.1467 149.228 24.48C149.015 25.5467 148.908 26.2133 148.908 26.48C148.908 27.4133 149.242 27.88 149.908 27.88C150.655 27.88 151.615 27.2933 152.788 26.12C153.135 25.7733 153.495 25.6 153.868 25.6C154.215 25.6 154.482 25.76 154.668 26.08C154.882 26.3733 154.988 26.7733 154.988 27.28C154.988 28.2667 154.722 29.04 154.188 29.6C153.442 30.3733 152.562 31.04 151.548 31.6C150.562 32.1333 149.508 32.4 148.388 32.4C146.975 32.4 145.895 32.04 145.148 31.32C144.428 30.6 144.068 29.6267 144.068 28.4C144.068 28 144.108 27.6 144.188 27.2C144.242 26.6667 144.268 26.3067 144.268 26.12C144.268 25.6933 144.122 25.48 143.828 25.48C143.428 25.48 142.895 25.9333 142.228 26.84C141.588 27.72 140.948 28.8933 140.308 30.36C139.668 31.8267 139.148 33.3733 138.748 35C138.455 36.2533 138.108 37.1067 137.708 37.56C137.335 37.9867 136.735 38.2 135.908 38.2ZM165.592 30.28C165.938 30.28 166.205 30.44 166.392 30.76C166.605 31.08 166.712 31.52 166.712 32.08C166.712 33.04 166.485 33.8667 166.032 34.56C165.285 35.7067 164.298 36.6 163.072 37.24C161.872 37.88 160.432 38.2 158.752 38.2C156.192 38.2 154.205 37.44 152.792 35.92C151.378 34.3733 150.672 32.2933 150.672 29.68C150.672 27.84 151.058 26.1333 151.832 24.56C152.605 22.96 153.672 21.6933 155.032 20.76C156.418 19.8267 157.978 19.36 159.712 19.36C161.258 19.36 162.498 19.8267 163.432 20.76C164.365 21.6667 164.832 22.9067 164.832 24.48C164.832 26.32 164.165 27.9067 162.832 29.24C161.525 30.5467 159.285 31.5867 156.112 32.36C156.752 33.5867 157.832 34.2 159.352 34.2C160.445 34.2 161.338 33.9467 162.032 33.44C162.752 32.9333 163.578 32.08 164.512 30.88C164.832 30.48 165.192 30.28 165.592 30.28ZM159.032 23.28C158.045 23.28 157.205 23.8533 156.512 25C155.845 26.1467 155.512 27.5333 155.512 29.16V29.24C157.085 28.8667 158.325 28.3067 159.232 27.56C160.138 26.8133 160.592 25.9467 160.592 24.96C160.592 24.4533 160.445 24.0533 160.152 23.76C159.885 23.44 159.512 23.28 159.032 23.28Z" fill="black"/>
</svg>
