<svg xmlns="http://www.w3.org/2000/svg" width="256" height="256" viewBox="0 0 256 256" fill="none">
    <path d="M256 0H0V256H256V0Z" fill="#3953E1"/>
    <path d="M127.969 71.6822C89.6021 71.6822 58.3313 102.893 58.3313 141.32C58.3313 179.747 89.542 210.958 127.969 210.958C166.396 210.958 197.607 179.747 197.607 141.32C197.607 102.893 166.396 71.6822 127.969 71.6822ZM166.697 141.32C166.697 162.668 149.317 180.048 127.969 180.048C106.621 180.048 89.2413 162.668 89.2413 141.32C89.2413 119.972 106.621 102.592 127.969 102.592C149.317 102.592 166.697 119.972 166.697 141.32Z" fill="white"/>
    <path d="M127.973 21.469C118.832 21.469 111.375 28.9258 111.375 38.0666C111.375 47.2073 118.832 54.6642 127.973 54.6642C137.114 54.6642 144.571 47.2073 144.571 38.0666C144.571 28.8657 137.114 21.469 127.973 21.469Z" fill="white"/>
    <path d="M176.31 71.1998L57.7578 189.752L79.6142 211.609L198.167 93.0562L176.31 71.1998Z" fill="white"/>
</svg>